<svg width="34" height="33" viewBox="0 0 34 33" fill="none" xmlns="http://www.w3.org/2000/svg">
<path d="M33.8526 7.51998V13.0452C33.8526 15.834 32.2028 18.2415 29.8152 19.3668V14.2935C29.8152 9.79833 26.1109 6.13944 21.5567 6.13944H7.08804C6.47792 6.13944 5.88336 6.20401 5.31059 6.33008C5.88336 3.03093 8.79079 0.518898 12.2959 0.518898H26.7615C30.6775 0.518898 33.8495 3.65201 33.8495 7.51998H33.8526Z" fill="#733BED"/>
<path d="M21.5536 7.29246H7.08804C3.17515 7.29246 0 10.4286 0 14.2935V19.8188C0 23.6867 3.17515 26.8199 7.08804 26.8199H7.71373V33L8.61025 32.1145C12.0438 28.7231 16.7006 26.8199 21.5536 26.8199C25.4696 26.8199 28.6417 23.6837 28.6417 19.8188V14.2935C28.6417 10.4286 25.4696 7.29246 21.5536 7.29246Z" fill="#733BED"/>
</svg>
